<svg width="379" height="388" viewBox="0 0 379 388" fill="none" xmlns="http://www.w3.org/2000/svg">
<path fill-rule="evenodd" clip-rule="evenodd" d="M182.5 0C283.292 0 365 81.708 365 182.5C365 283.292 283.292 365 182.5 365C81.708 365 0 283.292 0 182.5C0 81.708 81.708 0 182.5 0ZM182.5 56C112.636 56 56 112.636 56 182.5C56 252.364 112.636 309 182.5 309C252.364 309 309 252.364 309 182.5C309 112.636 252.364 56 182.5 56Z" fill="#E3F1F1"/>
<circle cx="322" cy="331" r="57" fill="#33B7D8"/>
<circle cx="221.5" cy="231.5" r="25.5" fill="#33B7D8"/>
</svg>
